# xmcd
#
# Track frame offsets:
#	150
#	13703
#	30116
#	48067
#	63090
#	83518
#	100592
#	118124
#	133184
#	151651
#	168556
#	185269
#	199210
#	215615
#	230920
#	245848
#	265183
#	276980
#	292062
#
# Disc length: 4080 seconds
#
# Revision: 1
# Processed by: cddbd v1.5.2PL0 Copyright (c) Steve Scherf et al.
# Submitted via: audiograbber 1.83.01
#
DISCID=0a0fee13
DTITLE=Various Artist - Songs That Make Us Country [Disc 2]
DYEAR=2013
DGENRE=Country
TTITLE0=Emerson Drive - Countrified Soul
TTITLE1=Kip Moore - Beer Money (Album Version)
TTITLE2=Brooks and Dunn - That's What It's All About
TTITLE3=Sara Storer - Calling Me Home
TTITLE4=Alan Jackson - Remember When
TTITLE5=Carrie Underwood - So Small
TTITLE6=Baylou - Thinkin' About Drinkin' About You
TTITLE7=Troy Cassar-Daley - V8 Town
TTITLE8=Kasey Chambers - Pony
TTITLE9=Jetty Road - Road To Nowhere
TTITLE10=The Sunny Cowgirls - Cuttin' Up B&S Style
TTITLE11=Corey Colum - Hot Out Here
TTITLE12=Sugarland - Something More (Album Version)
TTITLE13=Tamara Stewart - It's A Good Thing (You're Crazy)
TTITLE14=Bob Corbett and The Roo Grass Band - Lucky Country
TTITLE15=Felicity Urquhart - Girl In The Mall
TTITLE16=James Blundell - Good Wood
TTITLE17=Stephanie Jansen - Risky
TTITLE18=Courtney Conway - Girly Girl
EXTD=
EXTT0=
EXTT1=
EXTT2=
EXTT3=
EXTT4=
EXTT5=
EXTT6=
EXTT7=
EXTT8=
EXTT9=
EXTT10=
EXTT11=
EXTT12=
EXTT13=
EXTT14=
EXTT15=
EXTT16=
EXTT17=
EXTT18=
PLAYORDER=
